<svg class="animated" id="freepik_stories-movie-night" xmlns="http://www.w3.org/2000/svg" viewBox="0 0 500 500" version="1.1" xmlns:xlink="http://www.w3.org/1999/xlink" xmlns:svgjs="http://svgjs.com/svgjs"><style>svg#freepik_stories-movie-night:not(.animated) .animable {opacity: 0;}svg#freepik_stories-movie-night.animated #freepik--background-complete--inject-88 {animation: 1s 1 forwards cubic-bezier(.36,-0.01,.5,1.38) zoomIn;animation-delay: 0s;}svg#freepik_stories-movie-night.animated #freepik--Shadow--inject-88 {animation: 1s 1 forwards cubic-bezier(.36,-0.01,.5,1.38) lightSpeedRight;animation-delay: 0s;}svg#freepik_stories-movie-night.animated #freepik--Character--inject-88 {animation: 1s 1 forwards cubic-bezier(.36,-0.01,.5,1.38) slideDown;animation-delay: 0s;}            @keyframes zoomIn {                0% {                    opacity: 0;                    transform: scale(0.5);                }                100% {                    opacity: 1;                    transform: scale(1);                }            }                    @keyframes lightSpeedRight {              from {                transform: translate3d(50%, 0, 0) skewX(-20deg);                opacity: 0;              }              60% {                transform: skewX(10deg);                opacity: 1;              }              80% {                transform: skewX(-2deg);              }              to {                opacity: 1;                transform: translate3d(0, 0, 0);              }            }                    @keyframes slideDown {                0% {                    opacity: 0;                    transform: translateY(-30px);                }                100% {                    opacity: 1;                    transform: translateY(0);                }            }        </style><g id="freepik--background-complete--inject-88" class="animable" style="transform-origin: 250px 224.755px;"><rect y="382.4" width="500" height="0.25" style="fill: rgb(230, 230, 230); transform-origin: 250px 382.525px;" id="el2wuhrjeuwnh" class="animable"></rect><rect x="51.65" y="394.26" width="97.23" height="0.25" style="fill: rgb(230, 230, 230); transform-origin: 100.265px 394.385px;" id="elqljwob4dn4b" class="animable"></rect><rect x="195.26" y="388.83" width="51.4" height="0.25" style="fill: rgb(230, 230, 230); transform-origin: 220.96px 388.955px;" id="elxnvtgkx6c9s" class="animable"></rect><rect x="330.18" y="391.71" width="29.15" height="0.25" style="fill: rgb(230, 230, 230); transform-origin: 344.755px 391.835px;" id="elhphj9q7l5jr" class="animable"></rect><rect x="381.68" y="391.71" width="13.82" height="0.25" style="fill: rgb(230, 230, 230); transform-origin: 388.59px 391.835px;" id="elgidolq1wca" class="animable"></rect><rect x="158.56" y="394.26" width="15.97" height="0.25" style="fill: rgb(230, 230, 230); transform-origin: 166.545px 394.385px;" id="elybk9us5f56p" class="animable"></rect><rect x="403.67" y="391.71" width="41.92" height="0.25" style="fill: rgb(230, 230, 230); transform-origin: 424.63px 391.835px;" id="elw5350ysnrw" class="animable"></rect><path d="M237,337.8H43.91a5.71,5.71,0,0,1-5.7-5.71V60.66A5.71,5.71,0,0,1,43.91,55H237a5.71,5.71,0,0,1,5.71,5.71V332.09A5.71,5.71,0,0,1,237,337.8ZM43.91,55.2a5.46,5.46,0,0,0-5.45,5.46V332.09a5.46,5.46,0,0,0,5.45,5.46H237a5.47,5.47,0,0,0,5.46-5.46V60.66A5.47,5.47,0,0,0,237,55.2Z" style="fill: rgb(230, 230, 230); transform-origin: 140.46px 196.4px;" id="elfem06skunow" class="animable"></path><path d="M453.31,337.8H260.21a5.72,5.72,0,0,1-5.71-5.71V60.66A5.72,5.72,0,0,1,260.21,55h193.1A5.71,5.71,0,0,1,459,60.66V332.09A5.71,5.71,0,0,1,453.31,337.8ZM260.21,55.2a5.47,5.47,0,0,0-5.46,5.46V332.09a5.47,5.47,0,0,0,5.46,5.46h193.1a5.47,5.47,0,0,0,5.46-5.46V60.66a5.47,5.47,0,0,0-5.46-5.46Z" style="fill: rgb(230, 230, 230); transform-origin: 356.75px 196.4px;" id="el6b3d2tpdoeb" class="animable"></path><rect x="282.08" y="246.11" width="70.07" height="136.29" style="fill: rgb(245, 245, 245); transform-origin: 317.115px 314.255px;" id="elwe1ccyzgv3t" class="animable"></rect><rect x="346.36" y="246.11" width="5.78" height="136.29" style="fill: rgb(235, 235, 235); transform-origin: 349.25px 314.255px;" id="el553j5dcwfm5" class="animable"></rect><g id="el8aax8d9ecxn"><rect x="126.14" y="250" width="161.33" height="29.44" style="fill: rgb(235, 235, 235); transform-origin: 206.805px 264.72px; transform: rotate(180deg);" class="animable" id="elcrd67hsugwe"></rect></g><path d="M193.42,382.5H124.25a1,1,0,0,1,0-2h69.17c10,0,11.33-2.92,11.33-14.5V220a1,1,0,0,1,2,0V366C206.75,378.38,204.83,382.5,193.42,382.5Z" style="fill: rgb(230, 230, 230); transform-origin: 165px 300.75px;" id="elf37jpsmo03l" class="animable"></path><g id="eltdbieygify"><rect x="133.92" y="246.11" width="218.22" height="10.22" style="fill: rgb(235, 235, 235); transform-origin: 243.03px 251.22px; transform: rotate(180deg);" class="animable" id="el6a00rud9fxi"></rect></g><rect x="63.85" y="246.11" width="70.07" height="136.29" style="fill: rgb(245, 245, 245); transform-origin: 98.885px 314.255px;" id="elskw18u7d0e" class="animable"></rect><rect x="128.14" y="246.11" width="5.78" height="136.29" style="fill: rgb(235, 235, 235); transform-origin: 131.03px 314.255px;" id="elkanapt17e2" class="animable"></rect><rect x="185.78" y="73.63" width="245.92" height="158.8" style="fill: rgb(212, 225, 253); transform-origin: 308.74px 153.03px;" id="eliy84lo5gizg" class="animable"></rect><rect x="187.51" y="73.63" width="247.89" height="158.8" style="fill: rgb(240, 240, 240); transform-origin: 311.455px 153.03px;" id="elpkj7wbvivk" class="animable"></rect><rect x="185.78" y="232.43" width="245.92" height="3.57" style="fill: rgb(230, 230, 230); transform-origin: 308.74px 234.215px;" id="el6fs4min40ml" class="animable"></rect><rect x="212.55" y="232.43" width="239.79" height="3.57" style="fill: rgb(245, 245, 245); transform-origin: 332.445px 234.215px;" id="el5da0gvh0of9" class="animable"></rect><g id="el15gpeu6n8ro"><rect x="238.79" y="34.27" width="145.33" height="237.52" style="fill: rgb(250, 250, 250); transform-origin: 311.455px 153.03px; transform: rotate(90deg);" class="animable" id="elhtsmjc5ck1f"></rect></g><polygon points="250.57 225.69 281.01 80.37 319.84 80.37 289.4 225.69 250.57 225.69" style="fill: rgb(255, 255, 255); transform-origin: 285.205px 153.03px;" id="eln87hf15614h" class="animable"></polygon><polygon points="300.39 225.69 330.83 80.37 348.85 80.37 318.41 225.69 300.39 225.69" style="fill: rgb(255, 255, 255); transform-origin: 324.62px 153.03px;" id="el54jd92cb17t" class="animable"></polygon><g id="eld0s2egon8gg"><rect x="364.37" y="144.64" width="131.03" height="0.66" style="fill: rgb(212, 225, 253); transform-origin: 429.885px 144.97px; transform: rotate(90deg);" class="animable" id="elt8gsxyymb"></rect></g><path d="M186,69.33H435.57a4.07,4.07,0,0,1,4.07,4.07V220.57c-23,0-119.81-21.55-128.2-42.9-8.58,21.35-106.56,42.9-129.55,42.9h0V73.4A4.07,4.07,0,0,1,186,69.33Z" style="fill: rgb(235, 235, 235); transform-origin: 310.765px 144.95px;" id="elm4m2m0gyzh" class="animable"></path><path d="M311.44,69.33h0a.34.34,0,0,1,.34.34V177.82a.34.34,0,0,1-.34.34h0a.34.34,0,0,1-.34-.34V69.67A.34.34,0,0,1,311.44,69.33Z" style="fill: rgb(243, 247, 255); transform-origin: 311.44px 123.745px;" id="elle3zrh4m8e" class="animable"></path><rect x="73.33" y="69.33" width="49.34" height="73.7" style="fill: rgb(224, 224, 224); transform-origin: 98px 106.18px;" id="elpulftfeucb" class="animable"></rect><rect x="74.6" y="69.33" width="55.22" height="73.7" style="fill: rgb(245, 245, 245); transform-origin: 102.21px 106.18px;" id="elzr699fucadh" class="animable"></rect><g id="el29d6szuz74n"><rect x="71.05" y="84.27" width="62.31" height="43.83" style="fill: rgb(255, 255, 255); transform-origin: 102.205px 106.185px; transform: rotate(90deg);" class="animable" id="elrfzhnm971zq"></rect></g><path d="M93.3,118.85v-7.52a17.81,17.81,0,0,1,17.81-17.81h0V101A17.81,17.81,0,0,1,93.3,118.85Z" style="fill: rgb(235, 235, 235); transform-origin: 102.205px 106.185px;" id="elp7mldllx4he" class="animable"></path><polygon points="197.52 246.11 182.41 246.11 186.08 216.69 201.2 216.69 197.52 246.11" style="fill: rgb(230, 230, 230); transform-origin: 191.805px 231.4px;" id="elbkiv8ekwy16" class="animable"></polygon><polygon points="200.87 246.11 185.75 246.11 189.43 216.69 204.54 216.69 200.87 246.11" style="fill: rgb(245, 245, 245); transform-origin: 195.145px 231.4px;" id="elzs1nzxvt5uh" class="animable"></polygon><polygon points="233.29 246.11 222.36 246.11 220.26 242.78 231.19 242.78 233.29 246.11" style="fill: rgb(230, 230, 230); transform-origin: 226.775px 244.445px;" id="elis7e9enbbcr" class="animable"></polygon><polygon points="291.85 246.11 225.7 246.11 223.6 242.78 282.93 242.78 291.85 246.11" style="fill: rgb(245, 245, 245); transform-origin: 257.725px 244.445px;" id="elb22qpyc77n" class="animable"></polygon><path d="M149.59,237.67h4.77a8.44,8.44,0,0,1,8.45,8.44H141.14A8.44,8.44,0,0,1,149.59,237.67Z" style="fill: rgb(240, 240, 240); transform-origin: 151.975px 241.89px;" id="elcq2d2x2cj0c" class="animable"></path><polygon points="202.7 231.4 187.59 231.4 189.43 216.69 204.54 216.69 202.7 231.4" style="fill: rgb(230, 230, 230); transform-origin: 196.065px 224.045px;" id="elw87wpqrm1q" class="animable"></polygon><path d="M147.16,227.88H254.09a1.48,1.48,0,0,0,1.47-1.67l-8.24-65.92a1.48,1.48,0,0,0-1.47-1.3H138.92a1.48,1.48,0,0,0-1.47,1.66l8.24,65.93A1.48,1.48,0,0,0,147.16,227.88Z" style="fill: rgb(230, 230, 230); transform-origin: 196.506px 193.435px;" id="elmk4civmm6e" class="animable"></path><path d="M148.75,227.88H255.68a1.48,1.48,0,0,0,1.47-1.67l-8.24-65.92a1.5,1.5,0,0,0-1.47-1.3H140.51a1.47,1.47,0,0,0-1.47,1.66l8.24,65.93A1.48,1.48,0,0,0,148.75,227.88Z" style="fill: rgb(245, 245, 245); transform-origin: 198.095px 193.435px;" id="el21n5i73vqbl" class="animable"></path><path d="M253.7,224.23,246,162.53a.42.42,0,0,0-.42-.36H142.9a.41.41,0,0,0-.42.46l7.72,61.71a.4.4,0,0,0,.41.36H253.29A.42.42,0,0,0,253.7,224.23Z" style="fill: rgb(235, 235, 235); transform-origin: 198.09px 193.435px;" id="elzpah0ec4ehr" class="animable"></path><g id="elciodatbt3g"><path d="M190,243.35h24.62a0,0,0,0,1,0,0v.31a2.45,2.45,0,0,1-2.45,2.45H192.45a2.45,2.45,0,0,1-2.45-2.45v-.31A0,0,0,0,1,190,243.35Z" style="fill: rgb(245, 245, 245); transform-origin: 202.31px 244.73px; transform: rotate(180deg);" class="animable" id="elmn7x5z76b6l"></path></g><g id="elv91sm2ue6sr"><path d="M176.15,243.35h16.7a0,0,0,0,1,0,0v.31a2.45,2.45,0,0,1-2.45,2.45H178.6a2.45,2.45,0,0,1-2.45-2.45v-.31A0,0,0,0,1,176.15,243.35Z" style="fill: rgb(230, 230, 230); transform-origin: 184.5px 244.73px; transform: rotate(180deg);" class="animable" id="eljatv8i2y5r"></path></g><path d="M106.69,200.32s0,0,0-.07c.38-1.29.74-2.6,1.06-3.91,1.94,2.52,3.83,3.16,5.24,3.16l.45,0c2.79-.27,5.47-3,7.16-7.23a.67.67,0,0,0,0-.5.64.64,0,0,0-.39-.31,14.7,14.7,0,0,0-11.8,2.05c.25-1.24.46-2.48.64-3.72a7.69,7.69,0,0,0,1.34.13c4.55,0,7.89-4.06,8-4.25a.61.61,0,0,0,.11-.54.58.58,0,0,0-.36-.4c-2.71-1.08-5-1.17-6.83-.28a6.26,6.26,0,0,0-2.69,2.72A15,15,0,0,0,96.82,177a.59.59,0,0,0-.48.12.58.58,0,0,0-.24.44c-.23,4.13-.1,9.18,3,11.59a7,7,0,0,0,4.47,1.37,16.47,16.47,0,0,0,4.25-.66,70.94,70.94,0,0,1-1.92,8.83c-1.61-2.14-5.83-6.93-12.22-8.58a.59.59,0,0,0-.73.43c-.94,3.56-.46,6.44,1.39,8.35,1.52,1.57,3.9,2.38,6.91,2.38a21,21,0,0,0,4-.42c-.76,2.44-1.62,4.82-2.53,7.1-1.85-1.64-7.31-5.81-13.25-4.07a.57.57,0,0,0-.37.31.6.6,0,0,0,0,.49c1.62,3.94,3.45,6.12,5.76,6.88a6.34,6.34,0,0,0,1.9.29,11,11,0,0,0,5-1.46c-1.29,3-2.63,5.84-3.92,8.35-1.4-1.51-5.22-4.62-12-3.18a.61.61,0,0,0-.47.64,7.28,7.28,0,0,0,4.33,5.82,7.11,7.11,0,0,0,2.79.57,8.39,8.39,0,0,0,3.82-1c-1.32,2.42-2.52,4.45-3.45,6H81.48c-1.8-3.09-3.88-6.93-5.92-11.25a10.53,10.53,0,0,0,2.92.45,7.93,7.93,0,0,0,7.78-9.9.6.6,0,0,0-.64-.43,14.55,14.55,0,0,0-11.23,7.31c-1.35-3-2.63-6.19-3.77-9.5a10.43,10.43,0,0,0,4.73,1.38,5.87,5.87,0,0,0,1.93-.31c3.28-1.11,5.25-5.13,6.9-9.31a.56.56,0,0,0,0-.49.57.57,0,0,0-.37-.31c-6.74-1.88-12.2,4.56-13.89,6.86a79.76,79.76,0,0,1-2.23-8.46,24.44,24.44,0,0,0,4.26.42c3.43,0,6.13-.93,7.83-2.73,2-2.14,2.5-5.34,1.41-9.26a.61.61,0,0,0-.73-.42c-6.89,1.88-11.4,7.11-13.22,9.58-.09-.51-.17-1-.25-1.53a.65.65,0,0,0-.17-.34,7.37,7.37,0,0,0-3.69-4.57c-2-1-4.52-.81-7.49.41a.56.56,0,0,0-.35.41.6.6,0,0,0,.12.53c.17.21,3.85,4.55,8.79,4.55a7.87,7.87,0,0,0,1.58-.17c.22,1.42.49,2.84.79,4.26a16.08,16.08,0,0,0-13.06-2.11.59.59,0,0,0-.38.31.62.62,0,0,0,0,.5c1.92,4.65,4.9,7.59,8,7.84l.42,0c1.56,0,3.66-.72,5.8-3.59a94.15,94.15,0,0,0,3,9.6c-2.9-1.36-9.39-3.73-14-.13a.6.6,0,0,0-.12.83c3,4.09,5.78,6.08,8.5,6.08h.07c2.26,0,4.41-1.42,6.57-4.23,1.24,3.08,2.56,6,3.89,8.73-2.89-1.79-6.07-1.51-9.81.85a.6.6,0,0,0,0,1c.21.15,3.79,2.69,7.55,2.69a6.75,6.75,0,0,0,4-1.21C77.94,224,79,225.92,80,227.61H74.79v2.93h1.88l1.55,15.57h22.86l1.55-15.57h1.88v-2.93H94.25c1.15-1.89,2.6-4.41,4.15-7.38a.69.69,0,0,0,.1-.19c.39-.75.78-1.52,1.18-2.32a7.74,7.74,0,0,0,6.19,3.45,6.56,6.56,0,0,0,.76,0,7.45,7.45,0,0,0,6.12-4.79.6.6,0,0,0-.27-.72,12.71,12.71,0,0,0-11.56-.45c.86-1.84,1.72-3.78,2.54-5.8a.54.54,0,0,0,.11-.27c.23-.57.46-1.14.68-1.72,2,2.51,4,3.74,6,3.74h0c2.49,0,5-1.84,7.72-5.63a.6.6,0,0,0-.13-.83c-4.24-3.2-10.07-1-12.71.26q.81-2.25,1.51-4.58S106.69,200.33,106.69,200.32Z" style="fill: rgb(235, 235, 235); transform-origin: 86.8629px 211.55px;" id="elz2vih9da1fh" class="animable"></path><path d="M319,314.25h44.82a15.71,15.71,0,0,0,15.71-15.39l1.67-82.06a11.45,11.45,0,0,0-11.44-11.68h-28.1a11.45,11.45,0,0,0-11.38,10.15Z" style="fill: rgb(235, 235, 235); transform-origin: 350.101px 259.685px;" id="elhou8cvbwoun" class="animable"></path><g id="el6q4qv4x2xaf"><path d="M293.39,305.67h47.76a2.24,2.24,0,0,1,2.24,2.24v.21a6.14,6.14,0,0,1-6.14,6.14H293.39a0,0,0,0,1,0,0v-8.59A0,0,0,0,1,293.39,305.67Z" style="fill: rgb(235, 235, 235); transform-origin: 318.39px 309.965px; transform: rotate(180deg);" class="animable" id="el1tykufqry4l"></path></g><path d="M339.64,383.52a1,1,0,0,1-1-.79l-14-67.48h-24.4l-14,67.48a1,1,0,0,1-2-.41l14.18-68.27a1,1,0,0,1,1-.8h26a1,1,0,0,1,1,.8l14.17,68.27a1,1,0,0,1-.78,1.18A.65.65,0,0,1,339.64,383.52Z" style="fill: rgb(224, 224, 224); transform-origin: 312.415px 348.398px;" id="elgix2u9laq2a" class="animable"></path><path d="M324.43,383.52a.65.65,0,0,1-.2,0,1,1,0,0,1-.78-1.18l14.17-68.27a1,1,0,0,1,1-.8h26a1,1,0,0,1,1,.8l14.17,68.27a1,1,0,0,1-2,.41l-14-67.48H339.42l-14,67.48A1,1,0,0,1,324.43,383.52Z" style="fill: rgb(224, 224, 224); transform-origin: 351.62px 348.418px;" id="elm27928eej6n" class="animable"></path></g><g id="freepik--Shadow--inject-88" class="animable" style="transform-origin: 250px 416.24px;"><ellipse cx="250" cy="416.24" rx="193.89" ry="11.32" style="fill: rgb(245, 245, 245); transform-origin: 250px 416.24px;" id="elukzekqzdev" class="animable"></ellipse></g><g id="freepik--Character--inject-88" class="animable" style="transform-origin: 266.797px 314.592px;"><path d="M393.89,291.93l-1.43,18.89a.6.6,0,0,1-.59.54h-8.11a.59.59,0,0,1-.59-.54l-.31-4.24-.73-9.86-.35-4.79Z" style="fill: #5B91FF; transform-origin: 387.835px 301.645px;" id="ell81nlcf27b" class="animable"></path><g id="elnremyazi38s"><path d="M393.89,291.93l-1.43,18.89a.6.6,0,0,1-.59.54h-8.11a.59.59,0,0,1-.59-.54l-.31-4.24-.73-9.86-.35-4.79Z" style="opacity: 0.2; transform-origin: 387.835px 301.645px;" class="animable" id="els3m2yg17yb"></path></g><g id="elxm24526iav"><rect x="380.45" y="290.97" width="14.77" height="1.9" rx="0.86" style="fill: rgb(235, 235, 235); transform-origin: 387.835px 291.92px; transform: rotate(0.06deg);" class="animable" id="elmhijcvczmmr"></rect></g><path d="M148.53,267.71H341.92A16.28,16.28,0,0,1,358.21,284v74a0,0,0,0,1,0,0h-226a0,0,0,0,1,0,0V284A16.28,16.28,0,0,1,148.53,267.71Z" style="fill: #5B91FF; transform-origin: 245.21px 312.855px;" id="el1b26unr5565" class="animable"></path><g id="el7qo1asq1vzs"><path d="M148.53,267.71H341.92A16.28,16.28,0,0,1,358.21,284v74a0,0,0,0,1,0,0h-226a0,0,0,0,1,0,0V284A16.28,16.28,0,0,1,148.53,267.71Z" style="fill: rgb(255, 255, 255); opacity: 0.3; transform-origin: 245.21px 312.855px;" class="animable" id="els53fdrx3uk"></path></g><path d="M167.84,267.71H347a15.5,15.5,0,0,1,15.5,15.5V358a0,0,0,0,1,0,0H152.34a0,0,0,0,1,0,0v-74.8A15.5,15.5,0,0,1,167.84,267.71Z" style="fill: #5B91FF; transform-origin: 257.42px 312.855px;" id="el15ro3h3kcom" class="animable"></path><g id="eln61n2incjks"><path d="M167.84,267.71H347a15.5,15.5,0,0,1,15.5,15.5V358a0,0,0,0,1,0,0H152.34a0,0,0,0,1,0,0v-74.8A15.5,15.5,0,0,1,167.84,267.71Z" style="fill: rgb(255, 255, 255); opacity: 0.6; transform-origin: 257.42px 312.855px;" class="animable" id="elgaecs81181"></path></g><path d="M352.67,311.33h0c-.49,0-1,0-1.48,0-10.44.75-18.89,9.59-19.55,20.48a22.84,22.84,0,0,0,.68,7.15,114.47,114.47,0,0,1,3.3,28.6v42.27a3.62,3.62,0,0,0,3.54,3.68h69.76V311.33Z" style="fill: #5B91FF; transform-origin: 370.257px 362.42px;" id="elwo2zd833wwl" class="animable"></path><g id="el3i5k9p09t2y"><path d="M352.67,311.33h0c-.49,0-1,0-1.48,0-10.44.75-18.89,9.59-19.55,20.48a22.84,22.84,0,0,0,.68,7.15,114.47,114.47,0,0,1,3.3,28.6v42.27a3.62,3.62,0,0,0,3.54,3.68h69.76V311.33Z" style="fill: rgb(255, 255, 255); opacity: 0.4; transform-origin: 370.257px 362.42px;" class="animable" id="el46v8uvjhxl5"></path></g><path d="M430,333.29c0-12.64-10.25-22.78-22.56-21.91-10.45.75-18.89,9.59-19.56,20.48a22.84,22.84,0,0,0,.68,7.15,114.47,114.47,0,0,1,3.3,28.6v42.27a3.62,3.62,0,0,0,3.54,3.68h27a3.62,3.62,0,0,0,3.54-3.68V366a104.19,104.19,0,0,1,3.26-26.8A22.65,22.65,0,0,0,430,333.29Z" style="fill: #5B91FF; transform-origin: 408.917px 362.444px;" id="el3bfnk88lmbe" class="animable"></path><g id="elouqblqhk63k"><path d="M430,333.29c0-12.64-10.25-22.78-22.56-21.91-10.45.75-18.89,9.59-19.56,20.48a22.84,22.84,0,0,0,.68,7.15,114.47,114.47,0,0,1,3.3,28.6v42.27a3.62,3.62,0,0,0,3.54,3.68h27a3.62,3.62,0,0,0,3.54-3.68V366a104.19,104.19,0,0,1,3.26-26.8A22.65,22.65,0,0,0,430,333.29Z" style="fill: rgb(255, 255, 255); opacity: 0.6; transform-origin: 408.917px 362.444px;" class="animable" id="elaqp8vng4itm"></path></g><rect x="195.74" y="345.93" width="184.13" height="67.64" style="fill: #5B91FF; transform-origin: 287.805px 379.75px;" id="elytsbyitfbrf" class="animable"></rect><g id="elb68ndettapf"><rect x="195.74" y="345.93" width="184.13" height="67.64" style="fill: rgb(255, 255, 255); opacity: 0.4; transform-origin: 287.805px 379.75px;" class="animable" id="el8pa3eyh3qm4"></rect></g><path d="M200.82,340.36H378.71a4.8,4.8,0,0,1,4.8,4.8V358a4.8,4.8,0,0,1-4.8,4.8H200.82a1.43,1.43,0,0,1-1.43-1.43V341.79A1.43,1.43,0,0,1,200.82,340.36Z" style="fill: #5B91FF; transform-origin: 291.45px 351.58px;" id="eli0v23sucy7" class="animable"></path><g id="elien0nqs4gc"><path d="M200.82,340.36H378.71a4.8,4.8,0,0,1,4.8,4.8V358a4.8,4.8,0,0,1-4.8,4.8H200.82a1.43,1.43,0,0,1-1.43-1.43V341.79A1.43,1.43,0,0,1,200.82,340.36Z" style="fill: rgb(255, 255, 255); opacity: 0.2; transform-origin: 291.45px 351.58px;" class="animable" id="elb66sjfl2w1k"></path></g><path d="M123.61,413.56H410a0,0,0,0,1,0,0v.05a2.62,2.62,0,0,1-2.62,2.62H126.23a2.62,2.62,0,0,1-2.62-2.62v-.05A0,0,0,0,1,123.61,413.56Z" style="fill: #5B91FF; transform-origin: 266.805px 414.895px;" id="el0f9hig7vczou" class="animable"></path><g id="el4o4oopekl4"><path d="M123.61,413.56H410a0,0,0,0,1,0,0v.05a2.62,2.62,0,0,1-2.62,2.62H126.23a2.62,2.62,0,0,1-2.62-2.62v-.05A0,0,0,0,1,123.61,413.56Z" style="fill: rgb(255, 255, 255); opacity: 0.2; transform-origin: 266.805px 414.895px;" class="animable" id="elmyl60ebcm3m"></path></g><g id="elp0jbut8a90i"><path d="M376.05,401.16c-5.65,1.22-9.65,1.27-12.48.78a2.59,2.59,0,0,0,1.53-1.16,1.06,1.06,0,0,0-.13-1.06.63.63,0,0,0-.55-.33c-.63,0-1.46.9-2.08,1.69a3.43,3.43,0,0,0,0-2.47.64.64,0,0,0-.79-.21,1,1,0,0,0-.63.57,4.15,4.15,0,0,0,.22,2.6,2.12,2.12,0,0,0-.45.11l-4.05-5.41,1.63-1.49L357.14,392l-1.05.89c-1-1.55-2.56-4.09-4.48-7.3,4.2-8.95,7.94-20.12,8.19-31.79.34-16-19.86-24.17-35.56-28.08l3.35-24.94a68.88,68.88,0,0,0,3.53-11,12.47,12.47,0,0,0,1.58-5l-.32-7-6.49-1L325.4,280l.16,1.35a2.19,2.19,0,0,0-2.05-.1,3.13,3.13,0,0,0-4.47-.43,3.12,3.12,0,0,0-1.83-.92,3.06,3.06,0,0,0-2.16.52c-1.06-4.17-2.74-9.15-4.76-9.66a18.64,18.64,0,0,0-2.76-.53c-2.19-.39-5.4-.94-8.71-1.34-1-.13-2-.24-3-.33h0c-.36-.09-.69-.19-1-.3l1.63-.35a10.59,10.59,0,0,0,6.95,0l6.22,0v-.2h-128a119,119,0,0,0-6,14.26l2.13.84c-1.13,2.39-2.17,4.83-3.09,7.39a52.23,52.23,0,0,0-2.33,8.44,31.82,31.82,0,0,0-.48,4.69,15.08,15.08,0,0,0,.84,5.51,11.44,11.44,0,0,0,1.54,3,10.1,10.1,0,0,0,2.61,2.44,11,11,0,0,0,3,1.32,13.42,13.42,0,0,0,2.87.34,16.21,16.21,0,0,0,4.88-.77c.45-.14.87-.32,1.3-.48a15.61,15.61,0,0,0,3.46.55l5.73,2.63,3.2-5.76c.35,3.7.6,6.43.87,7.83,1.79,11.23,5.07,18.42,10.49,22.15,5.71,3.93,22.18,1.32,32.77.83,2.72,2.32,5.44,4.68,8.09,7-4.24,13.23-14.36,34.11-17.93,41.31l-.69-.47-2.23,3.72,2.21,1.76L233,398.58h0L228,405l-.65-.4a.68.68,0,0,0-.82.08l-5.05,4.56a1,1,0,0,0,.14,1.63c2.49,1.48,3.79,2.69,7.06,4.3a18.55,18.55,0,0,1,1.84,1h8.19a16.39,16.39,0,0,1-2.81-4.8,3.55,3.55,0,0,0,1.73.68l.18,0a1,1,0,0,0,.77-.51.51.51,0,0,0,0-.53c-.25-.5-1.41-.82-2.46-1,.9-.16,1.77-.47,1.95-.91.08-.17.09-.44-.28-.72-1-.77-2.36.24-3.09.92a2.41,2.41,0,0,0-.48-.42l6.34-8.13,2.83,2.26,3.8-3.88-1.62-1.1a379.54,379.54,0,0,0,23.33-33.34c11,12.66,20.34,29.72,24.21,37.26l-1.13.77,2.87,4,2.66-2,2,3.3,3.85,6.37-.61.46a.69.69,0,0,0-.22.8l.21.53h11.67l.56-.43c2.32-1.77,4.49-3.29,6.9-5a1.4,1.4,0,0,0,.62,1.42c2.55,1.56,4,2.3,6.82,4.05h10.24a10.26,10.26,0,0,1-2.09-4.38,4.73,4.73,0,0,0,2.44,1.15l.21,0a1.07,1.07,0,0,0,.8-.61.6.6,0,0,0,0-.58c-.34-.63-1.89-1-3.14-1.21,1.09-.17,2.22-.56,2.46-1.11.08-.19.1-.49-.32-.82a1.42,1.42,0,0,0-1.09-.3,4.41,4.41,0,0,0-2.22,1.39,2.1,2.1,0,0,0-.42-.37l-.67-.42,3.54-5.22,3.22,1.88,1.77-1.87L342,402.46l1.19-1.83c.47-.7,1-1.46,1.49-2.29.89.94,1.66,1.72,2.27,2.34l-1,.86,3,1.85,1.51-1.38,1.71,2.28.72,1-1,.45a.68.68,0,0,0-.38.82l2.14,7.39a1.37,1.37,0,0,0,1.88.82c3-1.44,4.42-2.28,8.28-4,2.37-1.07,8.57-3.58,11.85-5.06S377.55,400.84,376.05,401.16ZM196.52,306.84l-8,1.33-.08.12a15.16,15.16,0,0,1-5-.32,4.53,4.53,0,0,1-1-.43,1.51,1.51,0,0,1-.46-.45,2.43,2.43,0,0,1-.12-.39,5,5,0,0,1-.07-.61,21.16,21.16,0,0,1,.59-5.42,48.4,48.4,0,0,1,2.21-6.65c1-2.4,2.12-4.78,3.35-7.15l3.65,1.44s2.3-4.39,4.77-9.87l.18.84c.11.5.21,1,.31,1.48a277.87,277.87,0,0,1,4.24,29.75ZM238.3,411.21a.17.17,0,0,1,0,.19.68.68,0,0,1-.52.35,3.7,3.7,0,0,1-2.16-1c-.08-.17-.16-.35-.25-.53C236.64,410.45,238.09,410.78,238.3,411.21Zm-.7-2.53c.24.18.2.28.18.32-.17.41-1.59.76-2.67.81l-.16-.22C235.61,409,236.81,408.07,237.6,408.68Zm103.08,3.25a.34.34,0,0,1,0,.31.82.82,0,0,1-.59.46c-.6.1-1.58-.39-2.74-1.31-.05-.21-.11-.41-.17-.61C338.53,411,340.36,411.35,340.68,411.93Zm-1.8-3.29a1.08,1.08,0,0,1,.87.23c.33.26.26.43.23.49-.21.5-1.73.94-2.94,1a2.82,2.82,0,0,0-.23-.42A4.07,4.07,0,0,1,338.88,408.64Zm-67.39-88.48h-.05a.69.69,0,0,0-.44.15c-7.35-2.23-16.82-3.31-25.06-3.82-3-1.6-4.88-2.49-4.88-2.49.86-18.8-1-33.32-3.4-43.64,5.23.89,9.59,1.24,9.59,1.24l.44-2.8.1,0a142.05,142.05,0,0,0,16,2.69c-3.34,3.41-7.36,13.73-7.36,13.73l3.2,2.29c-.73,2.56-1.4,5.13-2,7.75s-1.13,5.2-1.53,7.91c-.21,1.35-.37,2.73-.46,4.17-.05.72-.07,1.45-.07,2.22,0,.38,0,.8,0,1.19a7.82,7.82,0,0,0,.32,1.94,7.29,7.29,0,0,0,2.32,3.47,9,9,0,0,0,2.9,1.58,16.67,16.67,0,0,0,4.9.79,35.36,35.36,0,0,0,5.53-.33C271.53,318.86,271.51,319.5,271.49,320.16Zm-8-9.82a.48.48,0,0,1-.15-.14A.41.41,0,0,1,263.52,310.34Zm3,.8a9.69,9.69,0,0,1-2.69-.63l-.17-.09c0-.22,0-.42,0-.66,0-.52.09-1.07.17-1.63.15-1.13.35-2.31.59-3.5.48-2.38,1.09-4.8,1.72-7.23.38-1.44.79-2.88,1.21-4.32l2.56,1.83.17-.32c.35,2.26.63,4.35.84,6.31,0,0,0,0,0,0,.42,3.82.62,7.16.67,10.39A34.21,34.21,0,0,1,266.51,311.14Zm43.87,98.36-.26.07c-.33-.84-.76-2.28.1-2.8a.48.48,0,0,1,.25-.1.13.13,0,0,1,.1,0C310.89,407,310.73,408.46,310.38,409.5Zm.51-.07c.63-1.13,1.46-2.37,1.93-2.41h0a.16.16,0,0,1,.14.08.69.69,0,0,1,.15.61c-.11.47-.68,1.05-1.59,1.63C311.33,409.37,311.12,409.41,310.89,409.43Zm23-20.56c-1.18,3.23-2.12,5.54-2.75,7l-1.16-.7-1.21,2.48,2.9,1.7-1.59,2.35h0l-1.77,2.6-.24-.15a.68.68,0,0,0-.89.12l-.4.47c-.17-.76-.66-1.23-1.17-1-4.82,2.23-8.43,4.68-13.32,5.44a3,3,0,0,0,1.18-1.45,1.06,1.06,0,0,0-.21-.9.53.53,0,0,0-.48-.22c-.55.06-1.27,1-1.83,1.94.17-.9.2-1.82-.15-2.15-.13-.13-.38-.23-.77,0-1.08.66-.62,2.28-.25,3.21a3.37,3.37,0,0,0-.56.3l-5.79-9.59,3.24-2.41L305,393.9l-.32.22A346.29,346.29,0,0,0,290,353.67a32.67,32.67,0,0,0-2.71-4.86c10.18,1.13,22.37,2.1,29.85,14.32A203.67,203.67,0,0,0,334.55,387C334.33,387.65,334.11,388.28,333.89,388.87ZM340,364.35c-1.94-4-3.72-8-5.14-11.78a16.84,16.84,0,0,1,2.56,1.84l.05,0c.23.2.44.4.64.61l.06.07a8.57,8.57,0,0,1,1.05,1.34,1.59,1.59,0,0,0,.13.22l.24.46c0,.09.09.19.12.28s.11.28.16.43.08.23.11.34.09.4.12.6.05.42.06.63A40.94,40.94,0,0,1,340,364.35Zm21.46,37.2a4.06,4.06,0,0,1-.26-2.47.7.7,0,0,1,.46-.41l.2,0a.3.3,0,0,1,.27.14c.34.47.09,1.86-.29,2.8A2.43,2.43,0,0,0,361.48,401.55Zm.79.11c.64-.87,1.57-2,2.15-2a.35.35,0,0,1,.31.19.82.82,0,0,1,.11.8,2.94,2.94,0,0,1-1.83,1.17A7.29,7.29,0,0,1,362.27,401.66Z" style="opacity: 0.1; transform-origin: 274.754px 341.965px;" class="animable" id="elm5kibhktrmr"></path></g><path d="M242.15,253.8c5,1.48,10.21,2.94,15.32,4.29,2.57.68,5.14,1.31,7.71,1.92s5.13,1.13,7.69,1.6c.58.08,1,.16,1.62.22l1.82.14c1.26.08,2.56.12,3.87.15,2.64,0,5.31.06,8,0,5.38,0,10.82-.07,16.24-.06l.63,5.49c-5.4,1.21-10.79,2.19-16.27,2.95-2.73.36-5.49.71-8.29.93-1.41.11-2.83.2-4.29.26-.73,0-1.5,0-2.25,0s-1.68-.08-2.45-.14a141.71,141.71,0,0,1-16.63-2.76c-5.45-1.22-10.74-2.65-16.13-4.41Z" style="fill: rgb(228, 137, 123); transform-origin: 271.895px 262.745px;" id="eltkyoyuyqa5" class="animable"></path><polygon points="364.98 412.06 371.07 406.03 359.07 389.99 352.98 396.02 364.98 412.06" style="fill: rgb(113, 64, 62); transform-origin: 362.025px 401.025px;" id="el059h0vn3nbc6" class="animable"></polygon><polygon points="331.77 409.72 339.17 414.05 350.32 397.58 342.92 393.26 331.77 409.72" style="fill: rgb(113, 64, 62); transform-origin: 341.045px 403.655px;" id="elj872h3g1cp" class="animable"></polygon><polygon points="350.32 397.59 344.57 406.07 337.17 401.75 342.92 393.26 350.32 397.59" style="fill: rgb(84, 47, 47); transform-origin: 343.745px 399.665px;" id="eljaqgiigwy2" class="animable"></polygon><polygon points="352.98 396.03 359.07 390 365.25 398.27 359.16 404.3 352.98 396.03" style="fill: rgb(84, 47, 47); transform-origin: 359.115px 397.15px;" id="elt1lqy8htsnp" class="animable"></polygon><path d="M347.27,359.44c.25,7.65-2.08,17-4.65,24.71-.54,1.65-1.1,3.25-1.64,4.72-2.34,6.37-3.7,9.18-3.7,9.18L348,404.3a31.59,31.59,0,0,1,2.28-3.67c.91-1.35,1.94-3,3-4.83,5.74-9.6,13.26-25.29,13.62-42,.56-26.14-53.61-31.34-53.61-31.34h-25.6l7.18,20.38S346.8,345.51,347.27,359.44Z" style="fill: #5B91FF; transform-origin: 327.297px 363.38px;" id="elibd8dccsqmp" class="animable"></path><g id="elrx4eq2dr8y"><path d="M347.27,359.44c.25,7.65-2.08,17-4.65,24.71-.54,1.65-1.1,3.25-1.64,4.72-2.34,6.37-3.7,9.18-3.7,9.18L348,404.3a31.59,31.59,0,0,1,2.28-3.67c.91-1.35,1.94-3,3-4.83,5.74-9.6,13.26-25.29,13.62-42,.56-26.14-53.61-31.34-53.61-31.34h-25.6l7.18,20.38S346.8,345.51,347.27,359.44Z" style="opacity: 0.2; transform-origin: 327.297px 363.38px;" class="animable" id="elgh4suxigs7e"></path></g><g id="el2v5y29554i"><path d="M341,388.87a55.89,55.89,0,0,0,9.25,11.76c.91-1.35,1.94-3,3-4.83l-10.65-11.65C342.08,385.8,341.52,387.4,341,388.87Z" style="opacity: 0.3; transform-origin: 347.125px 392.39px;" class="animable" id="el101j9sbnbq9"></path></g><polygon points="335.86 397.7 349.38 405.61 351.15 403.74 337.06 395.21 335.86 397.7" style="fill: #5B91FF; transform-origin: 343.505px 400.41px;" id="el2eztps8ee3j" class="animable"></polygon><g id="elee20j8rps5s"><path d="M332.16,337.78l1.09,11.11c7.58,2.37,13.41,5.62,14,10C348.51,349.09,341.66,343.29,332.16,337.78Z" style="opacity: 0.3; transform-origin: 339.78px 348.335px;" class="animable" id="el4wfw67weify"></path></g><path d="M304.09,322.46s32.07,13.08,37,27.54c6.23,18.46,23.17,44.53,23.17,44.53l-8.58,7.82s-18.1-17.5-31.39-39.22c-16.69-27.29-56.93,1.53-45.77-40.67Z" style="fill: #5B91FF; transform-origin: 320.427px 362.405px;" id="eloc08gcqoh4b" class="animable"></path><g id="elq7qhz2og0ca"><path d="M304.09,322.46s32.07,13.08,37,27.54c6.23,18.46,23.17,44.53,23.17,44.53l-8.58,7.82s-18.1-17.5-31.39-39.22c-16.69-27.29-56.93,1.53-45.77-40.67Z" style="opacity: 0.2; transform-origin: 320.427px 362.405px;" class="animable" id="eli92seagrcv"></path></g><polygon points="355.94 403.39 365.4 394.78 364.23 392 352.98 401.54 355.94 403.39" style="fill: #5B91FF; transform-origin: 359.19px 397.695px;" id="elxfvsqv4hl7c" class="animable"></polygon><path d="M278,320.42l-.27,3.12c-.13.24.16.48.56.48h35.21c.31,0,.57-.15.59-.35l.31-3.11c0-.22-.25-.4-.59-.4H278.53A.65.65,0,0,0,278,320.42Z" style="fill: #5B91FF; transform-origin: 296.049px 322.09px;" id="eluhav9p4jlq" class="animable"></path><path d="M282.7,324.36h-.95c-.19,0-.33-.1-.32-.21l.45-4c0-.12.17-.22.36-.22h.95c.18,0,.33.1.31.22l-.44,4C283.05,324.26,282.88,324.36,282.7,324.36Z" style="fill: #5B91FF; transform-origin: 282.466px 322.145px;" id="el1ogtfor6kudi" class="animable"></path><path d="M310.8,324.36h-.94c-.19,0-.33-.1-.32-.21l.44-4c0-.12.18-.22.37-.22h.94c.19,0,.33.1.32.22l-.44,4C311.16,324.26,311,324.36,310.8,324.36Z" style="fill: #5B91FF; transform-origin: 310.575px 322.145px;" id="elalfzab88rda" class="animable"></path><path d="M296.75,324.36h-.94c-.19,0-.34-.1-.32-.21l.44-4c0-.12.18-.22.37-.22h.94c.19,0,.33.1.32.22l-.45,4C297.1,324.26,296.94,324.36,296.75,324.36Z" style="fill: #5B91FF; transform-origin: 296.524px 322.145px;" id="elaeqi65jpmgg" class="animable"></path><g id="elkg4542e7tne"><g style="opacity: 0.6; transform-origin: 296.52px 322.145px;" class="animable" id="els10qsj2jvw"><path d="M282.7,324.36h-.95c-.19,0-.33-.1-.32-.21l.45-4c0-.12.17-.22.36-.22h.95c.18,0,.33.1.31.22l-.44,4C283.05,324.26,282.88,324.36,282.7,324.36Z" id="elw4qkaajkcr9" class="animable" style="transform-origin: 282.466px 322.145px;"></path><path d="M310.8,324.36h-.94c-.19,0-.33-.1-.32-.21l.44-4c0-.12.18-.22.37-.22h.94c.19,0,.33.1.32.22l-.44,4C311.16,324.26,311,324.36,310.8,324.36Z" id="el44jl0g56mqo" class="animable" style="transform-origin: 310.575px 322.145px;"></path><path d="M296.75,324.36h-.94c-.19,0-.34-.1-.32-.21l.44-4c0-.12.18-.22.37-.22h.94c.19,0,.33.1.32.22l-.45,4C297.1,324.26,296.94,324.36,296.75,324.36Z" id="elec91caci18m" class="animable" style="transform-origin: 296.524px 322.145px;"></path></g></g><path d="M347,413c-1.2,0-2.92-1.47-3.88-2.38a.17.17,0,0,1,0-.17.15.15,0,0,1,.15-.08c.43,0,4.21.4,4.78,1.42a.62.62,0,0,1,0,.59,1.08,1.08,0,0,1-.8.6Zm-3.37-2.3c1.5,1.38,2.8,2.12,3.54,2a.76.76,0,0,0,.59-.46.31.31,0,0,0,0-.31C347.39,411.26,345,410.85,343.63,410.7Z" style="fill: #5B91FF; transform-origin: 345.611px 411.685px;" id="elxoi19jq44ak" class="animable"></path><path d="M343.7,410.69a3.84,3.84,0,0,1-.5,0,.14.14,0,0,1-.11-.09.14.14,0,0,1,0-.14c.06-.08,1.45-1.9,2.82-2.07a1.38,1.38,0,0,1,1.09.29c.41.33.4.63.31.82C347,410.24,345,410.69,343.7,410.69Zm-.2-.29c1.26.07,3.32-.45,3.57-1,0-.05.1-.22-.23-.48a1.12,1.12,0,0,0-.88-.24A5,5,0,0,0,343.5,410.4Z" style="fill: #5B91FF; transform-origin: 345.216px 409.535px;" id="eltarjg7oqkqn" class="animable"></path><path d="M368.72,402.49a.13.13,0,0,1-.12-.06.15.15,0,0,1,0-.16c.19-.3,1.85-2.87,2.91-2.87h0a.65.65,0,0,1,.56.32,1.1,1.1,0,0,1,.13,1.07c-.42,1-2.34,1.48-3.45,1.7Zm2.78-2.81h0c-.68,0-1.88,1.57-2.47,2.45,1.58-.34,2.65-.88,2.9-1.46a.8.8,0,0,0-.11-.79A.36.36,0,0,0,371.5,399.68Z" style="fill: #5B91FF; transform-origin: 370.43px 400.945px;" id="elswq1fzm36j" class="animable"></path><path d="M368.72,402.49h0a.2.2,0,0,1-.12-.08c0-.1-1-2.33-.54-3.44a1,1,0,0,1,.64-.57.65.65,0,0,1,.79.21c.53.74,0,3-.64,3.82A.14.14,0,0,1,368.72,402.49Zm.24-3.85-.2,0a.72.72,0,0,0-.45.42c-.36.79.19,2.34.43,3,.48-.88.89-2.71.5-3.26A.34.34,0,0,0,369,398.64Z" style="fill: #5B91FF; transform-origin: 368.823px 400.417px;" id="el2asjfirdsa2" class="animable"></path><path d="M343.28,409.38l-8.11-5.18a.67.67,0,0,0-.89.13l-5,5.83a1.37,1.37,0,0,0,.34,2c2.86,1.76,4.33,2.46,7.9,4.74,2.19,1.4,6.45,4.36,9.82,5.61s4.78-2,3.49-2.85c-5.8-3.68-5.71-6.27-6.6-9.09A2.18,2.18,0,0,0,343.28,409.38Z" style="fill: #5B91FF; transform-origin: 340.145px 413.44px;" id="el57olc3os3qq" class="animable"></path><g id="el1hrkn2t4bn7"><path d="M343.28,409.38l-8.11-5.18a.67.67,0,0,0-.89.13l-5,5.83a1.37,1.37,0,0,0,.34,2c2.86,1.76,4.33,2.46,7.9,4.74,2.19,1.4,6.45,4.36,9.82,5.61s4.78-2,3.49-2.85c-5.8-3.68-5.71-6.27-6.6-9.09A2.18,2.18,0,0,0,343.28,409.38Z" style="opacity: 0.5; transform-origin: 340.145px 413.44px;" class="animable" id="ele7ma9xj993q"></path></g><path d="M367.65,401.74l-8.77,4a.68.68,0,0,0-.38.81l2.14,7.39a1.37,1.37,0,0,0,1.88.82c3-1.43,4.43-2.28,8.29-4,2.37-1.08,8.57-3.59,11.84-5.07s2-4.8.49-4.48c-6.71,1.46-11.12,1.26-14,.47A2.23,2.23,0,0,0,367.65,401.74Z" style="fill: #5B91FF; transform-origin: 371.586px 408.038px;" id="elyllfw4jm4ws" class="animable"></path><g id="el9vxeeysoann"><path d="M367.65,401.74l-8.77,4a.68.68,0,0,0-.38.81l2.14,7.39a1.37,1.37,0,0,0,1.88.82c3-1.43,4.43-2.28,8.29-4,2.37-1.08,8.57-3.59,11.84-5.07s2-4.8.49-4.48c-6.71,1.46-11.12,1.26-14,.47A2.23,2.23,0,0,0,367.65,401.74Z" style="opacity: 0.5; transform-origin: 371.586px 408.038px;" class="animable" id="el9h3f5wwaj9j"></path></g><path d="M317.38,270.75c3.53.9,6,15.43,6,15.43l-9.73,6.62s-9.33-14.66-6.61-18.55C309.86,270.21,312.23,269.44,317.38,270.75Z" style="fill: #5B91FF; transform-origin: 314.961px 281.482px;" id="elqjyar3zys9" class="animable"></path><g id="eldbwstt8p9t"><path d="M317.38,270.75c3.53.9,6,15.43,6,15.43l-9.73,6.62s-9.33-14.66-6.61-18.55C309.86,270.21,312.23,269.44,317.38,270.75Z" style="opacity: 0.6; transform-origin: 314.961px 281.482px;" class="animable" id="el0naggzaq2le"></path></g><path d="M278.49,322.47h34.79c8.18-50.29,4.1-51.72,4.1-51.72s-5.61-1.15-11.47-1.87c-1-.12-2-.24-3-.33a111.11,111.11,0,0,0-15.81,0c-1,.05-2,.12-3,.21a104.77,104.77,0,0,0-11.8,1.74C279.09,299.57,279.07,308.3,278.49,322.47Z" style="fill: #5B91FF; transform-origin: 295.349px 295.369px;" id="elt6x673psg7g" class="animable"></path><g id="el3ec0bqatpm9"><path d="M278.49,322.47h34.79c8.18-50.29,4.1-51.72,4.1-51.72s-5.61-1.15-11.47-1.87c-1-.12-2-.24-3-.33a111.11,111.11,0,0,0-15.81,0c-1,.05-2,.12-3,.21a104.77,104.77,0,0,0-11.8,1.74C279.09,299.57,279.07,308.3,278.49,322.47Z" style="opacity: 0.6; transform-origin: 295.349px 295.369px;" class="animable" id="elhvp5cukkot"></path></g><path d="M333.54,288.58,332.48,280l7.3,4.76s-.41,5.49-3.66,6.93Z" style="fill: rgb(113, 64, 62); transform-origin: 336.13px 285.845px;" id="elm4qcnww39rj" class="animable"></path><polygon points="332.98 276.72 339.46 277.72 339.78 284.75 332.49 280 332.98 276.72" style="fill: rgb(113, 64, 62); transform-origin: 336.135px 280.735px;" id="elyc01l4da8zr" class="animable"></polygon><path d="M284.12,268.76l.37.88c.2.49,5.05,11.88,14.44,19.49l2.3,1.85L303,288.6c5.28-7.15,3.7-16.45,2.92-19.72-1-.12-2-.24-3-.33a111.11,111.11,0,0,0-15.81,0C286.09,268.6,285.09,268.67,284.12,268.76Z" style="fill: rgb(235, 235, 235); transform-origin: 295.441px 279.624px;" id="el4vtr2ik9qx2" class="animable"></path><circle cx="287.09" cy="236.13" r="24.87" style="fill: rgb(38, 50, 56); transform-origin: 287.09px 236.13px;" id="el2dqzp4gy3r4" class="animable"></circle><path d="M288.66,250.76c1,5.08,2,14.4-1.57,17.79,0,0,4.67,11.14,13.62,18.38,5.6-7.58,2.18-18.38,2.18-18.38-5.66-1.35-5.52-5.56-4.53-9.51Z" style="fill: rgb(113, 64, 62); transform-origin: 295.507px 268.845px;" id="elw8uqmcw70ac" class="animable"></path><path d="M292.61,254.14l5.74,4.9a16.25,16.25,0,0,0-.48,2.8c-2.17-.31-5.14-2.69-5.37-5A7.6,7.6,0,0,1,292.61,254.14Z" style="fill: rgb(84, 47, 47); transform-origin: 295.389px 257.99px;" id="elp3o7s2foi4" class="animable"></path><path d="M283.5,241c1.41,8.38,1.84,12,6.56,15.84,7.11,5.83,17.1,2.25,18.21-6.38,1-7.78-1.48-20.19-10.1-22.66A11.59,11.59,0,0,0,283.5,241Z" style="fill: rgb(113, 64, 62); transform-origin: 295.895px 243.512px;" id="elt86s4rnz61i" class="animable"></path><path d="M285.09,248.17s10.61-7.95,1.44-18.23C276.26,230.5,280.86,251.33,285.09,248.17Z" style="fill: rgb(38, 50, 56); transform-origin: 285.287px 239.218px;" id="elmyrcve3arm" class="animable"></path><path d="M306.54,228.06s-12.58-9.83-21.9,2.27C293.56,239.18,310.56,231.48,306.54,228.06Z" style="fill: rgb(38, 50, 56); transform-origin: 295.893px 229.365px;" id="eljys8udr0lhe" class="animable"></path><path d="M282.1,249a6.45,6.45,0,0,0,3.28,3.43c2,.88,3.22-.77,2.87-2.78-.31-1.8-1.71-4.44-3.8-4.49S281.36,247.12,282.1,249Z" style="fill: rgb(113, 64, 62); transform-origin: 285.083px 248.916px;" id="elccufjd3zx3d" class="animable"></path><path d="M296.55,242c.07.69.5,1.21.95,1.16s.75-.65.68-1.33-.5-1.21-.95-1.16S296.48,241.32,296.55,242Z" style="fill: rgb(38, 50, 56); transform-origin: 297.365px 241.915px;" id="el0jzre7zfm41b" class="animable"></path><path d="M304.32,241.18c.07.69.49,1.21.94,1.16s.76-.64.68-1.33-.49-1.21-.94-1.16S304.24,240.49,304.32,241.18Z" style="fill: rgb(38, 50, 56); transform-origin: 305.13px 241.095px;" id="elftei52et2ca" class="animable"></path><path d="M304.8,239.91l1.6-.65S305.69,240.64,304.8,239.91Z" style="fill: rgb(38, 50, 56); transform-origin: 305.6px 239.692px;" id="el9fs8idg6rho" class="animable"></path><path d="M302.39,242.58a18.33,18.33,0,0,0,2.92,4.13,3,3,0,0,1-2.4.72Z" style="fill: rgb(86, 22, 22); transform-origin: 303.85px 245.02px;" id="elxgolak7lajn" class="animable"></path><path d="M299.6,250.23h0a5.92,5.92,0,0,1-3.76-2.23.13.13,0,0,1,0-.18.13.13,0,0,1,.18,0,5.73,5.73,0,0,0,3.58,2.13.13.13,0,0,1,.12.14A.13.13,0,0,1,299.6,250.23Z" style="fill: rgb(38, 50, 56); transform-origin: 297.762px 249.007px;" id="el1kf1spfl6g2" class="animable"></path><path d="M294.81,239.33a.23.23,0,0,1-.14,0,.25.25,0,0,1-.08-.35,3.86,3.86,0,0,1,3-1.89.3.3,0,0,1,.27.25.27.27,0,0,1-.26.27,3.34,3.34,0,0,0-2.59,1.64A.26.26,0,0,1,294.81,239.33Z" style="fill: rgb(38, 50, 56); transform-origin: 296.205px 238.215px;" id="elev5od7x9x1a" class="animable"></path><path d="M307.42,237.08a.27.27,0,0,1-.2-.09,3.36,3.36,0,0,0-2.79-1.29.25.25,0,0,1-.29-.23.26.26,0,0,1,.23-.28,3.86,3.86,0,0,1,3.25,1.47.25.25,0,0,1,0,.36A.23.23,0,0,1,307.42,237.08Z" style="fill: rgb(38, 50, 56); transform-origin: 305.918px 236.134px;" id="elf0brm8a3xsj" class="animable"></path><path d="M297,240.74l1.6-.65S297.93,241.47,297,240.74Z" style="fill: rgb(38, 50, 56); transform-origin: 297.8px 240.522px;" id="els8gxrgtuugb" class="animable"></path><g id="el2r15p3k76fo"><path d="M280.5,284,276,287.82c1,5.08,1.6,9.32,2,13.08C278.86,297.13,281,286.89,280.5,284Z" style="opacity: 0.2; transform-origin: 278.287px 292.45px;" class="animable" id="elqfqabkbngjp"></path></g><path d="M334,288.23c-1.82,3.48-3.7,7-5.71,10.23-.49.77-1,1.52-1.5,2.2-1.23-3.2-2.41-6.4-3.47-9.63q-.92-2.77-1.74-5.55c-.27-.93-.54-1.85-.78-2.77s-.49-1.89-.66-2.63l-8.78,1.68c.23,1.23.45,2.18.73,3.24s.56,2,.86,3.05q.9,3,2,5.93a123.79,123.79,0,0,0,4.93,11.39l.34.7a8.74,8.74,0,0,0,.59,1.08,7.66,7.66,0,0,0,1,1.3,6,6,0,0,0,2,1.32,5.47,5.47,0,0,0,2.75.32,5.61,5.61,0,0,0,2-.69,8.05,8.05,0,0,0,2.09-1.7,16.8,16.8,0,0,0,2.16-3.09c.56-1,1-2,1.49-3a68,68,0,0,0,3.89-11.92Zm-9,14.33.22-.11C325.05,302.6,324.9,302.66,325,302.56Z" style="fill: rgb(113, 64, 62); transform-origin: 324.775px 295.112px;" id="elyev64f6k0o9" class="animable"></path><path d="M280.65,311.17a39.38,39.38,0,0,1-7,0,9.34,9.34,0,0,1-2.69-.63l-.17-.09c0-.21,0-.42,0-.66,0-.52.09-1.07.16-1.63.16-1.13.36-2.31.6-3.5.48-2.38,1.09-4.8,1.71-7.22s1.36-4.85,2.08-7.28,1.47-4.87,2.19-7.23L269,280.06a155.16,155.16,0,0,0-4.34,15.22c-.61,2.59-1.14,5.21-1.54,7.91-.2,1.35-.36,2.73-.45,4.17-.05.72-.08,1.46-.07,2.23,0,.37,0,.79,0,1.18a7.8,7.8,0,0,0,.33,1.94,7.17,7.17,0,0,0,2.32,3.47,9.15,9.15,0,0,0,2.9,1.59,17,17,0,0,0,4.89.79,42.64,42.64,0,0,0,8.39-.76,89.71,89.71,0,0,0,15.34-4.34l-1.23-4.26A145.79,145.79,0,0,1,280.65,311.17Z" style="fill: rgb(113, 64, 62); transform-origin: 279.684px 299.311px;" id="elx8whjzg4xz" class="animable"></path><path d="M272.32,270.5c-3.49,1.06-8.83,14.74-8.83,14.74L277,294.91s6.08-11.7,4.62-16.2C280.11,274,276.29,269.29,272.32,270.5Z" style="fill: #5B91FF; transform-origin: 272.668px 282.609px;" id="elqwe4ggwbw8i" class="animable"></path><g id="el9t6v34c97kn"><path d="M272.32,270.5c-3.49,1.06-8.83,14.74-8.83,14.74L277,294.91s6.08-11.7,4.62-16.2C280.11,274,276.29,269.29,272.32,270.5Z" style="opacity: 0.6; transform-origin: 272.668px 282.609px;" class="animable" id="eloass780ul6"></path></g><path d="M316.9,290a.86.86,0,0,1-.28,0l-16.17-4.79h-.05l-3.2-.95a1,1,0,0,1-.68-1.25,1,1,0,0,1,1.25-.67l3.15.94H301L317,288l19.63-3.84a1,1,0,1,1,.39,2L317.1,290A.68.68,0,0,1,316.9,290Z" style="fill: #5B91FF; transform-origin: 317.162px 286.154px;" id="el9jd1uih6w1" class="animable"></path><g id="elkzkjr5inbtd"><path d="M316.9,290a.86.86,0,0,1-.28,0l-16.17-4.79h-.05l-3.2-.95a1,1,0,0,1-.68-1.25,1,1,0,0,1,1.25-.67l3.15.94H301L317,288l19.63-3.84a1,1,0,1,1,.39,2L317.1,290A.68.68,0,0,1,316.9,290Z" style="opacity: 0.2; transform-origin: 317.162px 286.154px;" class="animable" id="eltd3r5lngp0r"></path></g><g id="elo9px1buvy1"><circle cx="330.43" cy="286.39" r="3.14" style="fill: rgb(255, 255, 255); transform-origin: 330.43px 286.39px; transform: rotate(-42.46deg);" class="animable" id="el8nm6js1ewsu"></circle></g><path d="M323.52,285.72a2.41,2.41,0,1,0,2.52-2.29A2.41,2.41,0,0,0,323.52,285.72Z" style="fill: rgb(255, 255, 255); transform-origin: 325.927px 285.837px;" id="elmrl4byekpce" class="animable"></path><path d="M318.69,288.11A3.14,3.14,0,1,0,320.3,284,3.13,3.13,0,0,0,318.69,288.11Z" style="fill: rgb(255, 255, 255); transform-origin: 321.573px 286.87px;" id="elk6jrbhygke" class="animable"></path><path d="M315.08,289.32a2.41,2.41,0,1,0,1.24-3.17A2.4,2.4,0,0,0,315.08,289.32Z" style="fill: rgb(255, 255, 255); transform-origin: 317.287px 288.357px;" id="elky1wyswwmqm" class="animable"></path><path d="M310.89,286.54a3.14,3.14,0,1,0,4.36-.86A3.14,3.14,0,0,0,310.89,286.54Z" style="fill: rgb(255, 255, 255); transform-origin: 313.499px 288.287px;" id="el1g7p4w29p1w" class="animable"></path><path d="M307.93,284.14a2.41,2.41,0,1,0,3.35-.66A2.42,2.42,0,0,0,307.93,284.14Z" style="fill: rgb(255, 255, 255); transform-origin: 309.934px 285.481px;" id="el98hedhfkn9o" class="animable"></path><path d="M302.56,283.68a3.15,3.15,0,1,0,3.53-2.71A3.16,3.16,0,0,0,302.56,283.68Z" style="fill: rgb(255, 255, 255); transform-origin: 305.683px 284.094px;" id="elkijk6r3gi2s" class="animable"></path><g id="ellbr6d4prqe8"><circle cx="301.24" cy="283.16" r="2.41" style="fill: rgb(255, 255, 255); transform-origin: 301.24px 283.16px; transform: rotate(-67.96deg);" class="animable" id="el9qeoxlbjobq"></circle></g><path d="M313.75,284a3.14,3.14,0,1,0,4.36-.85A3.14,3.14,0,0,0,313.75,284Z" style="fill: rgb(255, 255, 255); transform-origin: 316.355px 285.754px;" id="elnyn5a8bpapr" class="animable"></path><path d="M314.86,281.3a2.47,2.47,0,1,0,3.43-.67A2.47,2.47,0,0,0,314.86,281.3Z" style="fill: rgb(255, 255, 255); transform-origin: 316.91px 282.678px;" id="elsxi3zdb4esd" class="animable"></path><path d="M313,279a2.19,2.19,0,1,0,3-.59A2.19,2.19,0,0,0,313,279Z" style="fill: rgb(255, 255, 255); transform-origin: 314.803px 280.244px;" id="elqg0y6bpynid" class="animable"></path><path d="M316.05,279.6a2.19,2.19,0,1,0,3-.6A2.19,2.19,0,0,0,316.05,279.6Z" style="fill: rgb(255, 255, 255); transform-origin: 317.857px 280.837px;" id="el12y70y4lqal" class="animable"></path><path d="M329.72,282a2.18,2.18,0,1,0,3-.6A2.19,2.19,0,0,0,329.72,282Z" style="fill: rgb(255, 255, 255); transform-origin: 331.525px 283.225px;" id="ely2ze69auyfh" class="animable"></path><path d="M310.79,281.65a2.41,2.41,0,1,0,3.34-.66A2.41,2.41,0,0,0,310.79,281.65Z" style="fill: rgb(255, 255, 255); transform-origin: 312.791px 282.994px;" id="el924r23fuxp4" class="animable"></path><path d="M305.42,281.19a3.14,3.14,0,1,0,3.53-2.71A3.14,3.14,0,0,0,305.42,281.19Z" style="fill: rgb(255, 255, 255); transform-origin: 308.534px 281.592px;" id="eln8m7boyf9sg" class="animable"></path><path d="M317.13,283.23a3.14,3.14,0,1,0,3.52-2.71A3.13,3.13,0,0,0,317.13,283.23Z" style="fill: rgb(255, 255, 255); transform-origin: 320.244px 283.633px;" id="elwnaayjghmtq" class="animable"></path><path d="M320.77,282.59a3.14,3.14,0,1,0,3.53-2.7A3.15,3.15,0,0,0,320.77,282.59Z" style="fill: rgb(255, 255, 255); transform-origin: 323.883px 283.003px;" id="el2s81rum8p4j" class="animable"></path><path d="M325,282.8a3.15,3.15,0,1,0,3.53-2.71A3.14,3.14,0,0,0,325,282.8Z" style="fill: rgb(255, 255, 255); transform-origin: 328.123px 283.213px;" id="elwjk2bjw8m9" class="animable"></path><path d="M331.27,283.92a2.37,2.37,0,1,0,2.65-2A2.36,2.36,0,0,0,331.27,283.92Z" style="fill: rgb(255, 255, 255); transform-origin: 333.614px 284.27px;" id="eltp73pg8xey9" class="animable"></path><path d="M301.71,280.36a2.41,2.41,0,1,0,2.7-2.08A2.4,2.4,0,0,0,301.71,280.36Z" style="fill: rgb(255, 255, 255); transform-origin: 304.1px 280.669px;" id="el8z0a5ps2o4v" class="animable"></path><polygon points="297.48 283.29 299.44 333.6 330.07 335.05 336.78 285.15 333.5 285.79 327.65 286.94 324.27 287.6 318.57 288.71 316.9 289.04 315.27 288.56 309.7 286.91 306.4 285.93 300.69 284.24 300.68 284.24 297.48 283.29" style="fill: rgb(230, 230, 230); transform-origin: 317.13px 309.17px;" id="elr2vj8l7ay2b" class="animable"></polygon><polygon points="297.48 283.29 299.44 333.6 302.63 333.75 300.69 284.24 300.68 284.24 297.48 283.29" style="fill: #5B91FF; transform-origin: 300.055px 308.52px;" id="elr2j8ydkmqur" class="animable"></polygon><polygon points="306.4 285.93 306.22 333.92 309.52 334.07 309.7 286.91 306.4 285.93" style="fill: #5B91FF; transform-origin: 307.96px 310px;" id="eluwovto20o2" class="animable"></polygon><polygon points="315.27 288.56 313.11 334.24 316.4 334.4 318.57 288.71 316.9 289.04 315.27 288.56" style="fill: #5B91FF; transform-origin: 315.84px 311.48px;" id="el2topnednb32" class="animable"></polygon><polygon points="319.99 334.57 323.3 334.73 327.65 286.94 324.27 287.6 319.99 334.57" style="fill: #5B91FF; transform-origin: 323.82px 310.835px;" id="elgzep97tffs" class="animable"></polygon><polygon points="326.88 334.9 330.07 335.05 336.78 285.15 333.5 285.79 326.88 334.9" style="fill: #5B91FF; transform-origin: 331.83px 310.1px;" id="elia78hwz4k6l" class="animable"></polygon><g id="elixfhd288gmh"><g style="opacity: 0.2; transform-origin: 317.13px 309.17px;" class="animable" id="eloxls0g3qyy"><polygon points="297.48 283.29 299.44 333.6 302.63 333.75 300.69 284.24 300.68 284.24 297.48 283.29" id="eljlbcowl9h6m" class="animable" style="transform-origin: 300.055px 308.52px;"></polygon><polygon points="306.4 285.93 306.22 333.92 309.52 334.07 309.7 286.91 306.4 285.93" id="el4bal0gkn5cn" class="animable" style="transform-origin: 307.96px 310px;"></polygon><polygon points="315.27 288.56 313.11 334.24 316.4 334.4 318.57 288.71 316.9 289.04 315.27 288.56" id="eloj10slaqvg" class="animable" style="transform-origin: 315.84px 311.48px;"></polygon><polygon points="319.99 334.57 323.3 334.73 327.65 286.94 324.27 287.6 319.99 334.57" id="elwrq6plow41r" class="animable" style="transform-origin: 323.82px 310.835px;"></polygon><polygon points="326.88 334.9 330.07 335.05 336.78 285.15 333.5 285.79 326.88 334.9" id="elkl3lgbbeime" class="animable" style="transform-origin: 331.83px 310.1px;"></polygon></g></g><path d="M295.36,309.32l5.87-6L302,312s-4.57,3.05-7.71,1.38Z" style="fill: rgb(113, 64, 62); transform-origin: 298.145px 308.6px;" id="elumbtfjjba6" class="animable"></path><polygon points="308.38 302.45 308.62 309.75 301.98 312.01 301.23 303.33 308.38 302.45" style="fill: rgb(113, 64, 62); transform-origin: 304.925px 307.23px;" id="elg0iskb45wks" class="animable"></polygon><path d="M227.61,263.78c3.71,6,26.73,7.82,26.73,7.82L257,255.07a86.46,86.46,0,0,0-18.8-3.86C228.83,250.62,223.54,257.23,227.61,263.78Z" style="fill: #5B91FF; transform-origin: 241.611px 261.387px;" id="el1438xs19t1cc" class="animable"></path><g id="eleu8v5b94c6o"><path d="M227.61,263.78c3.71,6,26.73,7.82,26.73,7.82L257,255.07a86.46,86.46,0,0,0-18.8-3.86C228.83,250.62,223.54,257.23,227.61,263.78Z" style="opacity: 0.2; transform-origin: 241.611px 261.387px;" class="animable" id="eldgdv698gxkl"></path></g><path d="M238.16,251.21s11.92,20.66,10,62.79l-38.9,5.92c-1.17-5.93-1.85-35.63-11.89-62.88a101.43,101.43,0,0,1,12.77-3.63,144.44,144.44,0,0,1,16.53-2.51A74.46,74.46,0,0,1,238.16,251.21Z" style="fill: #5B91FF; transform-origin: 222.87px 285.363px;" id="eligycrn6ya6k" class="animable"></path><g id="eld2jocq9pwzf"><path d="M238.16,251.21s11.92,20.66,10,62.79l-38.9,5.92c-1.17-5.93-1.85-35.63-11.89-62.88a101.43,101.43,0,0,1,12.77-3.63,144.44,144.44,0,0,1,16.53-2.51A74.46,74.46,0,0,1,238.16,251.21Z" style="opacity: 0.2; transform-origin: 222.87px 285.363px;" class="animable" id="elruoh2sj5vma"></path></g><path d="M248.15,314s39.76,18.93,49,39.67a348.89,348.89,0,0,1,15.71,44.25l-10.66,7.92s-14.69-30.93-31.74-47c-18.53-17.47-48.76-41.3-48.76-41.3Z" style="fill: #5B91FF; transform-origin: 267.28px 359.92px;" id="el09uo6abyw14s" class="animable"></path><path d="M303,262.44l8-2.21-.57,7.67a10.39,10.39,0,0,1-8.22-.57Z" style="fill: rgb(228, 137, 123); transform-origin: 306.605px 264.36px;" id="ely1qh11krol" class="animable"></path><polygon points="316.41 262.79 316.67 267.92 310.45 267.9 311.03 260.23 316.41 262.79" style="fill: rgb(228, 137, 123); transform-origin: 313.56px 264.075px;" id="elcjpxtqrsmi9" class="animable"></polygon><g id="eluw5s5xfkm6"><path d="M207,267.06c1.19,5.67-.08,11.42-2.85,14.42q-.62-3-1.34-6.15Z" style="opacity: 0.3; transform-origin: 205.128px 274.27px;" class="animable" id="el455pqefh6ci"></path></g><path d="M208.94,234.55c1.85,5.16,4.37,14.75,1.19,18.86,0,0,2.28,5.2,12.16,3.67,7.89-1.22,4.37-6.18,4.37-6.18-6.14-.52-6.66-4.94-6.25-9.23Z" style="fill: rgb(228, 137, 123); transform-origin: 218.191px 245.956px;" id="elhnvnok5f7rj" class="animable"></path><path d="M211.08,250.53s2.64,4.14,12,6.43a10.38,10.38,0,0,0,.23,5.76s-11.25-3.61-14-9.3Z" style="fill: rgb(255, 255, 255); transform-origin: 216.31px 256.625px;" id="ellsxwtihpg3d" class="animable"></path><path d="M227,261.44s-1.5-3.21-3.92-4.48c1.06-1.88,1.81-5.77.23-7.27a17.15,17.15,0,0,1,3.47.67S229.14,253.56,227,261.44Z" style="fill: rgb(255, 255, 255); transform-origin: 225.489px 255.565px;" id="elxupdmsc36ko" class="animable"></path><path d="M213.61,237.45l6.79,4.21a17,17,0,0,0-.06,3c-2.32,0-5.81-2-6.41-4.34A8.06,8.06,0,0,1,213.61,237.45Z" style="fill: rgb(206, 111, 100); transform-origin: 216.995px 241.055px;" id="elgzgv0kmrxb9" class="animable"></path><path d="M223.62,215.06c3.9,1,7.46,11,3.13,14.05S216.22,213.18,223.62,215.06Z" style="fill: rgb(38, 50, 56); transform-origin: 224.455px 222.186px;" id="elcyj6b5mmb3" class="animable"></path><path d="M206.94,226.36c1.58,7.31,2.13,11.67,6.43,14.9,6.48,4.84,15.08.08,15.72-7.56.58-6.88-2.1-17.68-9.77-19.52A10.21,10.21,0,0,0,206.94,226.36Z" style="fill: rgb(228, 137, 123); transform-origin: 217.926px 228.552px;" id="el824dpa4cq" class="animable"></path><path d="M218.45,226.72c.1.6.49,1,.88,1s.64-.6.55-1.2-.49-1-.88-1S218.36,226.12,218.45,226.72Z" style="fill: rgb(38, 50, 56); transform-origin: 219.165px 226.62px;" id="elhak41b3nnvu" class="animable"></path><path d="M225.25,225.69c.09.6.48,1,.88,1s.63-.6.54-1.2-.48-1-.87-1S225.16,225.09,225.25,225.69Z" style="fill: rgb(38, 50, 56); transform-origin: 225.961px 225.59px;" id="el4x0a7olmb9v" class="animable"></path><path d="M223.14,226.31a21.8,21.8,0,0,0,3.65,4.71,3.51,3.51,0,0,1-2.79,1Z" style="fill: rgb(222, 87, 83); transform-origin: 224.965px 229.172px;" id="elvh86z6bcru8" class="animable"></path><path d="M221.61,234a5,5,0,0,1-3.6-1.46.18.18,0,1,1,.27-.23,4.87,4.87,0,0,0,4.17,1.27.17.17,0,0,1,.2.15.18.18,0,0,1-.15.2A5.6,5.6,0,0,1,221.61,234Z" style="fill: rgb(38, 50, 56); transform-origin: 220.298px 233.111px;" id="elljttq8sbm1h" class="animable"></path><path d="M216,224.84a.33.33,0,0,1-.17,0,.35.35,0,0,1-.14-.48,3.56,3.56,0,0,1,2.65-1.9.36.36,0,0,1,.38.33.34.34,0,0,1-.32.38h0a2.86,2.86,0,0,0-2.09,1.53A.33.33,0,0,1,216,224.84Z" style="fill: rgb(38, 50, 56); transform-origin: 217.184px 223.655px;" id="elumb8062vnjb" class="animable"></path><path d="M227.82,222.9a.36.36,0,0,1-.3-.15,2.83,2.83,0,0,0-2.23-1.29.35.35,0,0,1-.37-.35.37.37,0,0,1,.35-.37,3.6,3.6,0,0,1,2.84,1.6.35.35,0,0,1-.29.56Z" style="fill: rgb(38, 50, 56); transform-origin: 226.55px 221.82px;" id="el76gkw12usam" class="animable"></path><path d="M206.6,267.91c-1.36,2-2.82,4.16-4.17,6.29s-2.68,4.32-4,6.51A110.25,110.25,0,0,0,191.72,294a47.51,47.51,0,0,0-2.21,6.65,21.33,21.33,0,0,0-.6,5.43c0,.29.07.43.08.6a2.09,2.09,0,0,0,.11.39,1.56,1.56,0,0,0,.47.45,4.41,4.41,0,0,0,1,.44,18.15,18.15,0,0,0,6.36.2l2,5.14a18.43,18.43,0,0,1-2.09,1c-.69.29-1.4.56-2.14.79a16.33,16.33,0,0,1-4.89.77,12.79,12.79,0,0,1-2.86-.34,10.77,10.77,0,0,1-3.05-1.32,10.05,10.05,0,0,1-2.6-2.44,11.91,11.91,0,0,1-1.55-3,15.33,15.33,0,0,1-.83-5.51,31.81,31.81,0,0,1,.48-4.7,52.51,52.51,0,0,1,2.33-8.44,80.78,80.78,0,0,1,3.25-7.74c1.18-2.49,2.45-4.93,3.79-7.3s2.73-4.71,4.2-7,2.93-4.51,4.62-6.8Z" style="fill: rgb(228, 137, 123); transform-origin: 192.756px 288.565px;" id="elj9ftwayaba" class="animable"></path><path d="M195.6,308.18l8-1.33-4.15,8.38s-5.86-.18-6.62-3Z" style="fill: rgb(228, 137, 123); transform-origin: 198.215px 311.04px;" id="el1zrdfpcxpe4" class="animable"></path><polygon points="208.94 311.08 205.17 317.85 199.45 315.23 203.6 306.85 208.94 311.08" style="fill: rgb(228, 137, 123); transform-origin: 204.195px 312.35px;" id="el47xwf09j1bh" class="animable"></polygon><path d="M199.6,227.54c3.86,5.76,7.61,9.12,10.67,8.37s2.95-7.62.46-13.47c-1.87-4.4,2.51-3.55,8.14-3.85,6.32-.33,10.46-5.48,8.22-9.35.43.85-10.05,1-7-2.73-5.87-.74-20.29,1.83-21,12.19C194.94,219.05,196.76,223.32,199.6,227.54Z" style="fill: rgb(38, 50, 56); transform-origin: 212.179px 221.203px;" id="el8w3uqva1gk7" class="animable"></path><path d="M199.16,219.17a3.16,3.16,0,0,0-3.29-3.42A22.12,22.12,0,0,1,199.16,219.17Z" style="fill: rgb(38, 50, 56); transform-origin: 197.521px 217.458px;" id="elw65hgip15m" class="animable"></path><path d="M204.85,235a7.1,7.1,0,0,0,4.85,2.44c2.49.17,3.22-2.18,2.1-4.26-1-1.88-3.51-4.22-5.81-3.4A3.19,3.19,0,0,0,204.85,235Z" style="fill: rgb(228, 137, 123); transform-origin: 208.122px 233.53px;" id="elry8b24cgr3e" class="animable"></path><path d="M197.36,257c-7.17,2.57-14.68,24.93-14.68,24.93l16,6.35a185.44,185.44,0,0,0,8.19-18.09C210.22,261.31,204.45,254.49,197.36,257Z" style="fill: #5B91FF; transform-origin: 195.264px 272.377px;" id="elkndmr7krss" class="animable"></path><g id="el678lep0v9zt"><path d="M197.36,257c-7.17,2.57-14.68,24.93-14.68,24.93l16,6.35a185.44,185.44,0,0,0,8.19-18.09C210.22,261.31,204.45,254.49,197.36,257Z" style="opacity: 0.2; transform-origin: 195.264px 272.377px;" class="animable" id="el1o5rwfwrowo"></path></g><polygon points="310.91 415.17 316.75 410.71 307.9 396.04 302.05 400.5 310.91 415.17" style="fill: rgb(228, 137, 123); transform-origin: 309.4px 405.605px;" id="el7cidy92geb9" class="animable"></polygon><polygon points="307.9 396.05 312.47 403.61 306.62 408.07 302.05 400.51 307.9 396.05" style="fill: rgb(206, 111, 100); transform-origin: 307.26px 402.06px;" id="elo3cvdq8a9mb" class="animable"></polygon><polygon points="234.56 405.71 240.81 409.58 251.36 396.07 245.1 392.2 234.56 405.71" style="fill: rgb(228, 137, 123); transform-origin: 242.96px 400.89px;" id="eldir0hv7z9n" class="animable"></polygon><polygon points="251.35 396.08 245.92 403.04 240.12 398.58 245.1 392.2 251.35 396.08" style="fill: rgb(206, 111, 100); transform-origin: 245.735px 397.62px;" id="el4ef0q8hdnff" class="animable"></polygon><g id="el4orhrdd0nbw"><path d="M248.15,314s39.76,18.93,49,39.67a348.89,348.89,0,0,1,15.71,44.25l-10.66,7.92s-14.69-30.93-31.74-47c-18.53-17.47-48.76-41.3-48.76-41.3Z" style="opacity: 0.7; transform-origin: 267.28px 359.92px;" class="animable" id="elt1xf159j1ss"></path></g><path d="M316.24,410l-6.38,4.87a.7.7,0,0,0-.22.8L312.1,422a1,1,0,0,0,1.57.45c2.28-1.79,5.51-4.48,8.41-6.68,3.38-2.59,6.44-4.62,10.41-7.65,2.4-1.83,1.37-4.89.22-4.36-5.28,2.44-9.09,5.18-14.74,5.63A3.31,3.31,0,0,0,316.24,410Z" style="fill: rgb(38, 50, 56); transform-origin: 321.771px 413.185px;" id="elzw8tv20lryp" class="animable"></path><path d="M317.34,410.44a.21.21,0,0,1-.13-.05.18.18,0,0,1,0-.2c.17-.35,1.7-3.41,2.69-3.52a.53.53,0,0,1,.49.22,1,1,0,0,1,.2.9c-.25,1.08-2.08,2.12-3.15,2.63A.1.1,0,0,1,317.34,410.44Zm2.59-3.42h0c-.53.05-1.53,1.62-2.18,2.85,1.43-.75,2.35-1.54,2.49-2.15a.65.65,0,0,0-.14-.61A.16.16,0,0,0,319.93,407Z" style="fill: #5B91FF; transform-origin: 318.902px 408.556px;" id="elr9oarm9fj3" class="animable"></path><path d="M317.34,410.44h0a.17.17,0,0,1-.16-.09c-.06-.12-1.56-3-.06-3.88.4-.24.64-.14.78,0,.6.58.09,3-.41,3.89A.16.16,0,0,1,317.34,410.44Zm.22-3.77a.57.57,0,0,0-.26.1c-1,.59-.29,2.36,0,3.1.43-1,.68-2.81.32-3.16A.16.16,0,0,0,317.56,406.67Z" style="fill: #5B91FF; transform-origin: 317.314px 408.383px;" id="elge1lcbp19ou" class="animable"></path><polygon points="301.96 406.75 313.76 397.98 312.05 393.91 299.1 402.76 301.96 406.75" style="fill: #5B91FF; transform-origin: 306.43px 400.33px;" id="elgnv37bwfoil" class="animable"></polygon><path d="M241.27,408.86l-6.83-4.23a.71.71,0,0,0-.83.08l-5,4.57a1,1,0,0,0,.14,1.62c2.49,1.49,3.79,2.7,7,4.31,6.36,3.13,7.2,7.35,13.36,7.35,3,0,4.53-2.44,3.32-2.83-7.39-2.4-7.56-4.35-10-9.47A3.2,3.2,0,0,0,241.27,408.86Z" style="fill: rgb(38, 50, 56); transform-origin: 240.553px 413.546px;" id="elsleimr39os9" class="animable"></path><path d="M244.72,412.11c-1.09,0-2.58-1.25-3.4-2a.17.17,0,0,1,0-.2.19.19,0,0,1,.17-.1c.39,0,3.8.37,4.25,1.26a.56.56,0,0,1,0,.53,1,1,0,0,1-.77.52ZM242,410.2c1.21,1.06,2.29,1.65,2.9,1.55a.69.69,0,0,0,.52-.35.19.19,0,0,0,0-.19C245.15,410.73,243.33,410.36,242,410.2Z" style="fill: #5B91FF; transform-origin: 243.547px 410.965px;" id="eljwjz1oah6w" class="animable"></path><path d="M241.92,410.17a3.78,3.78,0,0,1-.51,0,.2.2,0,0,1-.14-.11.19.19,0,0,1,0-.18c.09-.1,2.21-2.52,3.6-1.44.37.28.36.55.29.72C244.91,409.79,243.07,410.17,241.92,410.17Zm-.11-.35c1.11,0,2.86-.36,3.06-.82,0,0,0-.13-.18-.31C243.79,408,242.37,409.25,241.81,409.82Z" style="fill: #5B91FF; transform-origin: 243.223px 409.171px;" id="elfwqqfrik41m" class="animable"></path><path d="M234.35,316.1s58-1.71,56.08,15.46c-2.63,23.45-40.58,70.08-40.58,70.08l-8.46-7.86s16.9-33.38,20.46-48.26c1.68-7-33.24,2.66-42.11-3.44-5.42-3.73-8.7-10.93-10.49-22.16Z" style="fill: #5B91FF; transform-origin: 249.863px 358.846px;" id="elco41n4v0c3" class="animable"></path><g id="elqxptkuyose"><path d="M234.35,316.1s58-1.71,56.08,15.46c-2.63,23.45-40.58,70.08-40.58,70.08l-8.46-7.86s16.9-33.38,20.46-48.26c1.68-7-33.24,2.66-42.11-3.44-5.42-3.73-8.7-10.93-10.49-22.16Z" style="opacity: 0.6; transform-origin: 249.863px 358.846px;" class="animable" id="eljl7v3k76dp"></path></g><polygon points="239.75 394.47 250.51 403.04 254.31 399.17 241.97 390.75 239.75 394.47" style="fill: #5B91FF; transform-origin: 247.03px 396.895px;" id="elsmn9ylur7ia" class="animable"></polygon><g id="el8cpl0p65szw"><rect x="153.67" y="308.69" width="21.75" height="2.67" style="fill: rgb(38, 50, 56); transform-origin: 164.545px 310.025px; transform: rotate(180deg);" class="animable" id="elkhm4k3eed1"></rect></g><rect x="175.42" y="308.69" width="11.75" height="2.67" style="fill: #5B91FF; transform-origin: 181.295px 310.025px;" id="elh6d2l58u1qi" class="animable"></rect><path d="M124.67,311.33h0c-.49,0-1,0-1.47,0-10.45.75-18.9,9.59-19.56,20.48a22.84,22.84,0,0,0,.68,7.15,114.47,114.47,0,0,1,3.3,28.6v42.27a3.62,3.62,0,0,0,3.54,3.68h85.59V311.33Z" style="fill: #5B91FF; transform-origin: 150.172px 362.42px;" id="elcfy676yee3l" class="animable"></path><g id="el1sx1q8l9e36"><path d="M124.67,311.33h0c-.49,0-1,0-1.47,0-10.45.75-18.9,9.59-19.56,20.48a22.84,22.84,0,0,0,.68,7.15,114.47,114.47,0,0,1,3.3,28.6v42.27a3.62,3.62,0,0,0,3.54,3.68h85.59V311.33Z" style="fill: rgb(255, 255, 255); opacity: 0.4; transform-origin: 150.172px 362.42px;" class="animable" id="el0vtqjkbilbb"></path></g><path d="M217.83,333.29c0-12.64-10.25-22.78-22.56-21.91-10.45.75-18.89,9.59-19.56,20.48a23.14,23.14,0,0,0,.68,7.15,114,114,0,0,1,3.31,28.6v42.27a3.61,3.61,0,0,0,3.53,3.68h27a3.61,3.61,0,0,0,3.54-3.68V366a104.63,104.63,0,0,1,3.26-26.8A22.65,22.65,0,0,0,217.83,333.29Z" style="fill: #5B91FF; transform-origin: 196.748px 362.444px;" id="elprf27m7gthb" class="animable"></path><g id="el344s8rpsc12"><path d="M217.83,333.29c0-12.64-10.25-22.78-22.56-21.91-10.45.75-18.89,9.59-19.56,20.48a23.14,23.14,0,0,0,.68,7.15,114,114,0,0,1,3.31,28.6v42.27a3.61,3.61,0,0,0,3.53,3.68h27a3.61,3.61,0,0,0,3.54-3.68V366a104.63,104.63,0,0,1,3.26-26.8A22.65,22.65,0,0,0,217.83,333.29Z" style="fill: rgb(255, 255, 255); opacity: 0.6; transform-origin: 196.748px 362.444px;" class="animable" id="el0cyy9yl2qki"></path></g></g><defs>     <filter id="active" height="200%">         <feMorphology in="SourceAlpha" result="DILATED" operator="dilate" radius="2"></feMorphology>                <feFlood flood-color="#32DFEC" flood-opacity="1" result="PINK"></feFlood>        <feComposite in="PINK" in2="DILATED" operator="in" result="OUTLINE"></feComposite>        <feMerge>            <feMergeNode in="OUTLINE"></feMergeNode>            <feMergeNode in="SourceGraphic"></feMergeNode>        </feMerge>    </filter>    <filter id="hover" height="200%">        <feMorphology in="SourceAlpha" result="DILATED" operator="dilate" radius="2"></feMorphology>                <feFlood flood-color="#ff0000" flood-opacity="0.5" result="PINK"></feFlood>        <feComposite in="PINK" in2="DILATED" operator="in" result="OUTLINE"></feComposite>        <feMerge>            <feMergeNode in="OUTLINE"></feMergeNode>            <feMergeNode in="SourceGraphic"></feMergeNode>        </feMerge>            <feColorMatrix type="matrix" values="0   0   0   0   0                0   1   0   0   0                0   0   0   0   0                0   0   0   1   0 "></feColorMatrix>    </filter></defs></svg>